<svg width="641" height="111" viewBox="0 0 641 111" fill="none" xmlns="http://www.w3.org/2000/svg">
<g filter="url(#filter0_di_241_51)">
<path d="M97.0604 3.81386C98.5912 3.81386 100.056 4.41289 101.453 5.61094C102.851 6.74244 103.55 8.30657 103.55 10.3033C103.55 10.9024 103.45 11.5679 103.25 12.3001L83.5823 70.2062C83.1829 71.4042 82.4508 72.336 81.3858 73.0016C80.3874 73.6006 79.3225 73.9334 78.191 74C77.0595 74 75.928 73.6672 74.7965 73.0016C73.7316 72.336 72.8996 71.3709 72.3006 70.1063L57.5245 36.5607L58.4231 37.1598L43.8467 70.1063C43.2477 71.3709 42.3824 72.336 41.2509 73.0016C40.186 73.6672 39.0878 74 37.9563 74C36.8913 73.9334 35.8264 73.6006 34.7615 73.0016C33.6965 72.336 32.9644 71.4042 32.565 70.2062L12.8969 12.3001C12.6972 11.5679 12.5974 10.9024 12.5974 10.3033C12.5974 8.30657 13.2963 6.74244 14.694 5.61094C16.1583 4.41289 17.6559 3.81386 19.1867 3.81386C20.4513 3.81386 21.6161 4.14665 22.6811 4.81224C23.8125 5.47783 24.578 6.44293 24.9773 7.70754L40.8516 55.8295L38.6551 55.7296L52.8321 21.6849C53.3646 20.4868 54.13 19.555 55.1284 18.8894C56.1268 18.1573 57.2583 17.8245 58.5229 17.891C59.7875 17.8245 60.919 18.1573 61.9174 18.8894C62.9158 19.555 63.6479 20.4868 64.1138 21.6849L77.0928 54.2321L75.4954 55.2304L91.1699 7.70754C91.5693 6.44293 92.3347 5.47783 93.4662 4.81224C94.5977 4.14665 95.7958 3.81386 97.0604 3.81386ZM135.369 74.9984C129.712 74.9984 124.786 73.8336 120.593 71.504C116.467 69.1079 113.272 65.8798 111.009 61.8198C108.812 57.7597 107.714 53.1671 107.714 48.0421C107.714 42.0518 108.912 36.9601 111.308 32.7669C113.771 28.5071 116.966 25.2458 120.893 22.9828C124.82 20.7198 128.98 19.5883 133.373 19.5883C136.767 19.5883 139.962 20.2871 142.957 21.6849C146.019 23.0826 148.714 25.0128 151.044 27.4755C153.373 29.8716 155.204 32.6671 156.535 35.8619C157.933 39.0567 158.632 42.4512 158.632 46.0453C158.565 47.6428 157.933 48.9407 156.735 49.939C155.537 50.9374 154.139 51.4366 152.541 51.4366H114.403L111.408 41.4528H148.049L145.852 43.4496V40.7539C145.719 38.8237 145.02 37.0932 143.756 35.5624C142.558 34.0315 141.027 32.8334 139.163 31.9682C137.366 31.0364 135.436 30.5705 133.373 30.5705C131.376 30.5705 129.512 30.8367 127.782 31.3692C126.051 31.9016 124.554 32.8002 123.289 34.0648C122.024 35.3294 121.026 37.0266 120.294 39.1565C119.562 41.2864 119.196 43.982 119.196 47.2434C119.196 50.8376 119.928 53.8993 121.392 56.4285C122.923 58.8912 124.853 60.7881 127.183 62.1193C129.579 63.3839 132.108 64.0162 134.77 64.0162C137.233 64.0162 139.196 63.8165 140.661 63.4172C142.125 63.0178 143.29 62.5519 144.155 62.0194C145.087 61.4204 145.919 60.9212 146.651 60.5219C147.849 59.9228 148.981 59.6233 150.046 59.6233C151.51 59.6233 152.708 60.1225 153.64 61.1209C154.638 62.1193 155.137 63.2841 155.137 64.6152C155.137 66.4123 154.205 68.043 152.342 69.5073C150.611 70.9716 148.182 72.2695 145.054 73.401C141.925 74.4659 138.697 74.9984 135.369 74.9984ZM213.218 19.5883C214.949 19.5883 216.38 20.154 217.511 21.2855C218.643 22.417 219.208 23.8813 219.208 25.6784V67.9099C219.208 69.6404 218.643 71.1047 217.511 72.3028C216.38 73.4343 214.949 74 213.218 74C211.488 74 210.057 73.4343 208.925 72.3028C207.794 71.1047 207.228 69.6404 207.228 67.9099V63.0178L209.424 63.9164C209.424 64.7816 208.958 65.8466 208.026 67.1112C207.095 68.3092 205.83 69.5073 204.233 70.7053C202.635 71.9034 200.738 72.9351 198.542 73.8003C196.412 74.599 194.082 74.9984 191.553 74.9984C186.961 74.9984 182.801 73.8336 179.073 71.504C175.346 69.1079 172.384 65.8466 170.188 61.7199C168.058 57.5267 166.993 52.7345 166.993 47.3432C166.993 41.8854 168.058 37.0932 170.188 32.9666C172.384 28.7734 175.313 25.512 178.974 23.1824C182.634 20.7863 186.694 19.5883 191.154 19.5883C194.016 19.5883 196.645 20.0209 199.041 20.8862C201.437 21.7514 203.5 22.8496 205.231 24.1808C207.028 25.512 208.393 26.8764 209.324 28.2742C210.323 29.6054 210.822 30.7368 210.822 31.6687L207.228 32.9666V25.6784C207.228 23.9479 207.794 22.5168 208.925 21.3854C210.057 20.1873 211.488 19.5883 213.218 19.5883ZM193.051 64.0162C195.979 64.0162 198.542 63.2841 200.738 61.8198C202.935 60.3555 204.632 58.3587 205.83 55.8295C207.095 53.3002 207.727 50.4715 207.727 47.3432C207.727 44.1484 207.095 41.2864 205.83 38.7572C204.632 36.2279 202.935 34.2312 200.738 32.7669C198.542 31.3026 195.979 30.5705 193.051 30.5705C190.189 30.5705 187.66 31.3026 185.463 32.7669C183.267 34.2312 181.536 36.2279 180.271 38.7572C179.073 41.2864 178.474 44.1484 178.474 47.3432C178.474 50.4715 179.073 53.3002 180.271 55.8295C181.536 58.3587 183.267 60.3555 185.463 61.8198C187.66 63.2841 190.189 64.0162 193.051 64.0162ZM232.779 21.585H256.441C258.038 21.585 259.369 22.1175 260.434 23.1824C261.499 24.2474 262.032 25.5786 262.032 27.176C262.032 28.7068 261.499 30.0047 260.434 31.0696C259.369 32.068 258.038 32.5672 256.441 32.5672H232.779C231.182 32.5672 229.851 32.0347 228.786 30.9698C227.721 29.9049 227.188 28.5737 227.188 26.9763C227.188 25.4454 227.721 24.1808 228.786 23.1824C229.851 22.1175 231.182 21.585 232.779 21.585ZM243.462 9.10527C245.192 9.10527 246.59 9.7043 247.655 10.9024C248.787 12.0339 249.352 13.4649 249.352 15.1954V59.6233C249.352 60.5551 249.519 61.3206 249.852 61.9196C250.251 62.5186 250.75 62.9513 251.349 63.2175C252.015 63.4837 252.714 63.6168 253.446 63.6168C254.244 63.6168 254.977 63.4837 255.642 63.2175C256.308 62.8847 257.073 62.7183 257.938 62.7183C258.87 62.7183 259.702 63.1509 260.434 64.0162C261.233 64.8815 261.632 66.0795 261.632 67.6104C261.632 69.474 260.601 71.0049 258.537 72.2029C256.541 73.401 254.378 74 252.048 74C250.65 74 249.086 73.9002 247.356 73.7005C245.692 73.4343 244.094 72.8685 242.563 72.0032C241.099 71.0714 239.868 69.6737 238.869 67.81C237.871 65.9464 237.372 63.3839 237.372 60.1225V15.1954C237.372 13.4649 237.938 12.0339 239.069 10.9024C240.267 9.7043 241.731 9.10527 243.462 9.10527ZM301.086 19.5883C305.879 19.5883 309.506 20.6199 311.969 22.6832C314.498 24.7466 316.229 27.5088 317.16 30.9698C318.092 34.3643 318.558 38.1581 318.558 42.3513V67.9099C318.558 69.6404 317.992 71.1047 316.861 72.3028C315.729 73.4343 314.298 74 312.568 74C310.837 74 309.406 73.4343 308.275 72.3028C307.143 71.1047 306.578 69.6404 306.578 67.9099V42.3513C306.578 40.1549 306.311 38.1914 305.779 36.4609C305.246 34.6638 304.281 33.2328 302.884 32.1679C301.486 31.1029 299.489 30.5705 296.893 30.5705C294.364 30.5705 292.201 31.1029 290.404 32.1679C288.607 33.2328 287.242 34.6638 286.31 36.4609C285.445 38.1914 285.013 40.1549 285.013 42.3513V67.9099C285.013 69.6404 284.447 71.1047 283.315 72.3028C282.184 73.4343 280.753 74 279.022 74C277.292 74 275.861 73.4343 274.729 72.3028C273.598 71.1047 273.032 69.6404 273.032 67.9099V6.20997C273.032 4.47944 273.598 3.04843 274.729 1.91693C275.861 0.718879 277.292 0.119853 279.022 0.119853C280.753 0.119853 282.184 0.718879 283.315 1.91693C284.447 3.04843 285.013 4.47944 285.013 6.20997V30.9698L283.515 30.6703C284.114 29.5388 284.946 28.3407 286.011 27.0761C287.076 25.7449 288.374 24.5136 289.905 23.3821C291.435 22.2506 293.133 21.3521 294.996 20.6865C296.86 19.9543 298.89 19.5883 301.086 19.5883ZM356.69 74.9984C351.032 74.9984 346.107 73.8336 341.914 71.504C337.787 69.1079 334.592 65.8798 332.329 61.8198C330.133 57.7597 329.035 53.1671 329.035 48.0421C329.035 42.0518 330.233 36.9601 332.629 32.7669C335.092 28.5071 338.287 25.2458 342.213 22.9828C346.14 20.7198 350.3 19.5883 354.693 19.5883C358.088 19.5883 361.283 20.2871 364.278 21.6849C367.339 23.0826 370.035 25.0128 372.365 27.4755C374.694 29.8716 376.524 32.6671 377.856 35.8619C379.253 39.0567 379.952 42.4512 379.952 46.0453C379.886 47.6428 379.253 48.9407 378.055 49.939C376.857 50.9374 375.46 51.4366 373.862 51.4366H335.724L332.729 41.4528H369.369L367.173 43.4496V40.7539C367.04 38.8237 366.341 37.0932 365.076 35.5624C363.878 34.0315 362.347 32.8334 360.484 31.9682C358.687 31.0364 356.757 30.5705 354.693 30.5705C352.696 30.5705 350.833 30.8367 349.102 31.3692C347.372 31.9016 345.874 32.8002 344.61 34.0648C343.345 35.3294 342.347 37.0266 341.614 39.1565C340.882 41.2864 340.516 43.982 340.516 47.2434C340.516 50.8376 341.248 53.8993 342.713 56.4285C344.244 58.8912 346.174 60.7881 348.503 62.1193C350.899 63.3839 353.429 64.0162 356.091 64.0162C358.554 64.0162 360.517 63.8165 361.981 63.4172C363.446 63.0178 364.61 62.5519 365.476 62.0194C366.408 61.4204 367.24 60.9212 367.972 60.5219C369.17 59.9228 370.301 59.6233 371.366 59.6233C372.83 59.6233 374.029 60.1225 374.96 61.1209C375.959 62.1193 376.458 63.2841 376.458 64.6152C376.458 66.4123 375.526 68.043 373.662 69.5073C371.932 70.9716 369.503 72.2695 366.374 73.401C363.246 74.4659 360.018 74.9984 356.69 74.9984ZM396.41 74C394.679 74 393.248 73.4343 392.117 72.3028C390.985 71.1047 390.42 69.6404 390.42 67.9099V26.6768C390.42 24.9462 390.985 23.5152 392.117 22.3837C393.248 21.1857 394.679 20.5866 396.41 20.5866C398.14 20.5866 399.571 21.1857 400.703 22.3837C401.834 23.5152 402.4 24.9462 402.4 26.6768V36.0615L401.701 29.3724C402.433 27.775 403.365 26.3773 404.497 25.1792C405.695 23.9146 407.026 22.8829 408.49 22.0842C409.955 21.219 411.519 20.5866 413.183 20.1873C414.847 19.7879 416.511 19.5883 418.175 19.5883C420.171 19.5883 421.835 20.154 423.166 21.2855C424.564 22.417 425.263 23.7482 425.263 25.279C425.263 27.4755 424.697 29.0729 423.566 30.0713C422.434 31.0031 421.203 31.469 419.872 31.469C418.607 31.469 417.442 31.236 416.378 30.7701C415.379 30.3042 414.214 30.0713 412.883 30.0713C411.685 30.0713 410.454 30.3708 409.189 30.9698C407.991 31.5023 406.86 32.3675 405.795 33.5656C404.796 34.7636 403.964 36.2612 403.299 38.0583C402.7 39.7888 402.4 41.8522 402.4 44.2483V67.9099C402.4 69.6404 401.834 71.1047 400.703 72.3028C399.571 73.4343 398.14 74 396.41 74ZM488.347 19.7879L466.782 70.5057C466.317 71.7703 465.584 72.7687 464.586 73.5008C463.654 74.1664 462.623 74.4992 461.491 74.4992C459.694 74.4992 458.363 74 457.498 73.0016C456.632 72.0032 456.2 70.7719 456.2 69.3076C456.2 68.7086 456.299 68.0763 456.499 67.4107L481.359 7.70754C481.891 6.37637 482.69 5.34471 483.755 4.61256C484.886 3.88042 486.084 3.5809 487.349 3.71402C488.547 3.71402 489.645 4.08009 490.644 4.81224C491.709 5.47783 492.474 6.44293 492.94 7.70754L517.5 66.2126C517.833 67.0779 517.999 67.8766 517.999 68.6087C517.999 70.4058 517.4 71.8368 516.202 72.9018C515.071 73.9667 513.806 74.4992 512.408 74.4992C511.21 74.4992 510.112 74.1331 509.114 73.401C508.182 72.6688 507.45 71.6704 506.917 70.4058L485.452 20.387L488.347 19.7879ZM469.877 58.3254L475.369 46.8441H502.325L504.222 58.3254H469.877ZM553.11 19.5883C557.769 19.5883 561.929 20.7863 565.589 23.1824C569.317 25.512 572.245 28.7401 574.375 32.8667C576.572 36.9934 577.67 41.7856 577.67 47.2434C577.67 52.7012 576.572 57.5267 574.375 61.7199C572.245 65.8466 569.35 69.1079 565.689 71.504C562.095 73.8336 558.035 74.9984 553.509 74.9984C550.847 74.9984 548.351 74.5657 546.021 73.7005C543.692 72.8352 541.628 71.737 539.831 70.4058C538.101 69.0747 536.736 67.7435 535.738 66.4123C534.806 65.0146 534.34 63.8498 534.34 62.918L537.435 61.6201V87.8775C537.435 89.608 536.869 91.039 535.738 92.1705C534.606 93.3686 533.175 93.9676 531.445 93.9676C529.714 93.9676 528.283 93.4019 527.152 92.2704C526.02 91.1389 525.454 89.6746 525.454 87.8775V26.6768C525.454 24.9462 526.02 23.5152 527.152 22.3837C528.283 21.1857 529.714 20.5866 531.445 20.5866C533.175 20.5866 534.606 21.1857 535.738 22.3837C536.869 23.5152 537.435 24.9462 537.435 26.6768V31.5688L535.738 30.6703C535.738 29.805 536.204 28.7734 537.136 27.5753C538.067 26.3107 539.332 25.0794 540.929 23.8813C542.527 22.6167 544.357 21.585 546.42 20.7863C548.55 19.9876 550.78 19.5883 553.11 19.5883ZM551.612 30.5705C548.683 30.5705 546.121 31.3026 543.925 32.7669C541.728 34.2312 539.998 36.2279 538.733 38.7572C537.535 41.2198 536.936 44.0486 536.936 47.2434C536.936 50.3717 537.535 53.2337 538.733 55.8295C539.998 58.3587 541.728 60.3555 543.925 61.8198C546.121 63.2841 548.683 64.0162 551.612 64.0162C554.541 64.0162 557.07 63.2841 559.2 61.8198C561.396 60.3555 563.093 58.3587 564.291 55.8295C565.556 53.2337 566.188 50.3717 566.188 47.2434C566.188 44.0486 565.556 41.2198 564.291 38.7572C563.093 36.2279 561.396 34.2312 559.2 32.7669C557.07 31.3026 554.541 30.5705 551.612 30.5705ZM615.801 19.5883C620.46 19.5883 624.62 20.7863 628.281 23.1824C632.008 25.512 634.936 28.7401 637.066 32.8667C639.263 36.9934 640.361 41.7856 640.361 47.2434C640.361 52.7012 639.263 57.5267 637.066 61.7199C634.936 65.8466 632.041 69.1079 628.38 71.504C624.786 73.8336 620.726 74.9984 616.2 74.9984C613.538 74.9984 611.042 74.5657 608.712 73.7005C606.383 72.8352 604.319 71.737 602.522 70.4058C600.792 69.0747 599.427 67.7435 598.429 66.4123C597.497 65.0146 597.031 63.8498 597.031 62.918L600.126 61.6201V87.8775C600.126 89.608 599.561 91.039 598.429 92.1705C597.298 93.3686 595.867 93.9676 594.136 93.9676C592.405 93.9676 590.974 93.4019 589.843 92.2704C588.711 91.1389 588.146 89.6746 588.146 87.8775V26.6768C588.146 24.9462 588.711 23.5152 589.843 22.3837C590.974 21.1857 592.405 20.5866 594.136 20.5866C595.867 20.5866 597.298 21.1857 598.429 22.3837C599.561 23.5152 600.126 24.9462 600.126 26.6768V31.5688L598.429 30.6703C598.429 29.805 598.895 28.7734 599.827 27.5753C600.759 26.3107 602.023 25.0794 603.621 23.8813C605.218 22.6167 607.048 21.585 609.112 20.7863C611.242 19.9876 613.471 19.5883 615.801 19.5883ZM614.303 30.5705C611.375 30.5705 608.812 31.3026 606.616 32.7669C604.419 34.2312 602.689 36.2279 601.424 38.7572C600.226 41.2198 599.627 44.0486 599.627 47.2434C599.627 50.3717 600.226 53.2337 601.424 55.8295C602.689 58.3587 604.419 60.3555 606.616 61.8198C608.812 63.2841 611.375 64.0162 614.303 64.0162C617.232 64.0162 619.761 63.2841 621.891 61.8198C624.087 60.3555 625.785 58.3587 626.983 55.8295C628.247 53.2337 628.88 50.3717 628.88 47.2434C628.88 44.0486 628.247 41.2198 626.983 38.7572C625.785 36.2279 624.087 34.2312 621.891 32.7669C619.761 31.3026 617.232 30.5705 614.303 30.5705Z" fill="white"/>
</g>
<defs>
<filter id="filter0_di_241_51" x="0.117656" y="0.119858" width="640.243" height="110.487" filterUnits="userSpaceOnUse" color-interpolation-filters="sRGB">
<feFlood flood-opacity="0" result="BackgroundImageFix"/>
<feColorMatrix in="SourceAlpha" type="matrix" values="0 0 0 0 0 0 0 0 0 0 0 0 0 0 0 0 0 0 127 0" result="hardAlpha"/>
<feOffset dx="-8.31984" dy="12.4798"/>
<feGaussianBlur stdDeviation="2.07996"/>
<feColorMatrix type="matrix" values="0 0 0 0 0 0 0 0 0 0 0 0 0 0 0 0 0 0 0.1 0"/>
<feBlend mode="normal" in2="BackgroundImageFix" result="effect1_dropShadow_241_51"/>
<feBlend mode="normal" in="SourceGraphic" in2="effect1_dropShadow_241_51" result="shape"/>
<feColorMatrix in="SourceAlpha" type="matrix" values="0 0 0 0 0 0 0 0 0 0 0 0 0 0 0 0 0 0 127 0" result="hardAlpha"/>
<feOffset dx="-4.15992" dy="4.15992"/>
<feGaussianBlur stdDeviation="4.15992"/>
<feComposite in2="hardAlpha" operator="arithmetic" k2="-1" k3="1"/>
<feColorMatrix type="matrix" values="0 0 0 0 1 0 0 0 0 1 0 0 0 0 1 0 0 0 0.25 0"/>
<feBlend mode="normal" in2="shape" result="effect2_innerShadow_241_51"/>
</filter>
</defs>
</svg>
